<svg xmlns="http://www.w3.org/2000/svg" viewBox="0 0 359.61 359.61" fill="none">
  <path
    fill="#000"
    d="M303.93 40.65c-.65-.76-1.42-1.35-2.23-1.85-.21-.53-.47-1.05-.79-1.55C281 6.09 233.27-3.37 200.77 17.4c-29.86 19.08-48.92 60.28-27.71 93.46 3.29 5.29 9.99 18.2 13.23 30.85-.88.08-1.76.25-2.62.59-.27.11-27.63 11.05-57.38 15.08-36.65 4.98-59.57-2.21-68.1-21.34-2.76-6.2-11.15-25.05-26.12-22.13C5.76 119.08.13 199.63.11 200.44c-2.76 87.93 53.2 144.87 149.68 152.33 4.53.35 9.08.52 13.64.52 51.85 0 104.87-22.22 135.24-57.56 20.81-24.2 29.62-52.46 25.87-82.31-.01-.25.02-.5 0-.75-.9-9.15-8.98-89.96-15.47-109.99-.02-.08-.05-.16-.07-.23 2.28-1.07 7.42-2.1 10.99-2.83 10.72-2.16 24.04-4.85 32.35-15.14l7.27-9-10.33-5.22c-10.79-5.45-38.03-20.42-46.34-30.12Zm-19.46 242.89c-28.9 33.62-83.74 54.45-133.26 50.59-86.59-6.7-134.86-55.21-132.42-133.1.53-16.98 8.88-58.9 16.28-67.78 1.23 1.4 3.33 4.37 6.03 10.42 26.22 58.81 126.26 24.75 146.19 17.27-.06.24-.09.51-.16.75-1.35 4.34-4.1 7.28-8.66 9.28-4.73 2.08-6.89 7.59-4.81 12.32 1.54 3.51 4.97 5.61 8.57 5.61 1.25 0 2.52-.26 3.75-.79 9.49-4.16 16.07-11.37 19.01-20.86 8.14-26.19-13.53-62.23-16.1-66.36-14.57-22.81-.41-53.44 21.96-67.73 23.38-14.95 60.19-7.93 74.31 14.17.68 1.05 1.53 1.92 2.49 2.6.16 15.44 1.04 30.84 2.01 46.25.07 1.1.33 2.06.67 2.96-.39 2.89-.15 5.99.94 9.32 4.23 13.03 10.12 62.93 13.25 92.54-.54 1.58-.67 3.32-.27 5.08 4.49 20.09-2.34 46.88-21.79 69.5Z"
  />
  <path
    fill="#000"
    d="M215.51 222.49c-13.38-11.35-31.62-18.44-51.37-19.96-5.19-.33-9.65 3.45-10.05 8.6-.4 5.15 3.46 9.65 8.61 10.05 15.86 1.23 30.32 6.75 40.72 15.58 9.53 8.09 14.37 17.94 13.61 27.75-.76 9.8-7.05 18.8-17.71 25.33-11.63 7.12-26.76 10.36-42.63 9.13-5.18-.35-9.65 3.46-10.04 8.6-.4 5.15 3.46 9.65 8.6 10.05 2.66.21 5.31.31 7.93.31 16.89 0 32.95-4.21 45.91-12.13 15.92-9.74 25.37-23.89 26.6-39.85 1.23-15.95-5.96-31.38-20.19-43.46Z"
  />
  <path
    fill="#000"
    d="M250.17 52.53c-12.07 0-12.07 18.71 0 18.71 12.06 0 12.06-18.71 0-18.71Z"
  />
</svg>
